<?xml version="1.0" encoding="UTF-8"?>
<svg id="Camada_2" data-name="Camada 2" xmlns="http://www.w3.org/2000/svg" viewBox="0 0 456.09894 179.25935">
  <defs>
    <style>
      .cls-1 {
        fill: #1d1d1b;
      }
    </style>
  </defs>
  <g id="Camada_1-2" data-name="Camada 1">
    <g>
      <path class="cls-1" d="M322.2287,118.8188l-7.62695-4.7793c9.83008-15.68457,7.9707-79.29297,1.32227-92.36914-5.13672-10.10352-20.33496-12.45898-32.17871-12.65527-18.37207-.29297-37.89258,4.2041-45.43262,6.15723-13.07227,3.38672-30.46289,10.80566-30.55371,36.02246l-9-.0332c.08398-23.27148,12.63281-38.31152,37.29688-44.70215,7.89453-2.04492,28.35352-6.76953,47.83887-6.44336,20.82227.3457,34.29785,6.25879,40.05273,17.5752,8.01562,15.76855,9.95312,82.60254-1.71875,101.22754Z"/>
      <g>
        <path class="cls-1" d="M51.00859,88.28679c.65507,0,1.96342.14577,1.59989,1.09059-.21776.43732-.58129.87283-1.01861,1.30835-3.126,2.83626-7.56215,4.87347-12.79735,6.18182-13.96173,3.27177-32.21383-.29154-37.30506-15.41585-1.67188-4.79968-1.96342-10.25264-.72706-15.19809,2.90824-11.34323,13.88974-17.2335,24.94322-18.68762,5.38097-.72886,10.68815-.65507,15.99714.07199,1.88964.29154,4.07262.58129,5.67251,1.01861.58129.21776,1.23636.36353,1.74387.65327,1.45592.80085,1.45592,2.1092,1.01861,3.56332-1.81765,5.45476-4.79968,13.5982-6.61733,18.90718-.21776.72706-.58129,1.52611-.79905,2.1092-.36353.65327-.72706,1.23456-1.38214.87103-.65507-.5075-1.01861-1.38034-1.67188-2.6167-2.03721-4.07262-4.14641-8.21723-6.39957-12.21606-1.67368-2.76427-3.70909-6.2538-5.59873-7.49017-.94662-.65507-2.03721-.58309-2.76427.28974-1.09059,1.38214-1.38214,3.34556-1.45412,5.30898,0,3.34556.79905,6.68932,1.74567,9.88911,3.48953,11.56279,10.90771,20.65285,21.66965,20.50707,1.52611-.07379,2.90824-.21776,4.14461-.14577Z"/>
        <path class="cls-1" d="M113.19029,97.23107c-5.59873.07199-12.07029,0-17.7428,0h-3.05402c-1.16438-.07199-2.25497-.14577-3.27177-.65507-1.67368-.94482-1.74567-3.19979-2.18298-4.87167-.43552-1.96342-.94482-3.70909-1.59809-5.7445-2.40074-7.34439-5.7463-16.14291-8.80032-23.4873-.72706-1.67368-2.83446-7.49017-3.99883-3.56332-.58129,1.96342-.79905,4.65391-.94482,6.90708-.14577,2.54651-.21776,5.16321-.07379,7.70972.29154,5.88847,1.59989,11.70676,4.50994,16.79618.94482,1.74567,2.39894,3.41755,3.6353,4.87347,1.01861,1.30835,1.09059,1.81765-.72706,1.96342-1.01861.07199-2.03721.07199-3.1278.07199-6.90708,0-15.99714.07199-22.76024-.07199-1.52611-.07379-1.74567-.29154-1.09059-1.38214,5.38097-8.07145,12.28985-26.90485,16.86997-41.08613.58309-1.88964,1.23636-4.14461,2.54651-5.30718,1.52611-1.31015,4.21659-1.31015,6.252-1.31015h13.45422c1.88964.07379,3.70729-.07199,5.52674.36353,1.74387.43732,2.39894,1.89144,2.69048,3.56332.94482,4.65391,2.6167,9.23583,4.21659,13.74397,2.03541,5.7445,4.29038,11.63477,6.61733,17.2335,1.52791,3.56332,2.98203,6.98086,4.79968,10.25444,1.74567,2.98023,1.59989,3.85306-1.74567,3.99883Z"/>
        <path class="cls-1" d="M138.28468,97.95813c-4.21659,0-8.28921-.14577-12.50581-.36353-2.03721-.14577-4.36416-.07199-6.03604-1.01861-2.47273-1.52611-1.96342-6.18002-2.03721-8.94429l.07379-6.18002c.07199-.80085.07199-2.76427,1.01861-2.54471.28974.07199.43552.21776.65327.36353.80085.58129,1.89144,1.74387,3.19979,2.98023.80085.80085,1.67188,1.52791,2.54471,2.25497,4.00063,3.27177,8.58076,6.39957,13.5982,7.77991,1.38214.29154,2.83626.43732,4.21839.29154,3.126-.36353,5.30718-2.69048,2.76247-5.16321-1.01681-1.01861-2.32695-1.74567-3.78108-2.39894-2.54471-1.31015-5.67251-2.32695-8.43499-3.56332-5.89027-2.54471-12.87114-5.59873-15.63361-11.63477-1.96342-4.50814-1.31015-9.88911,1.45412-14.1075,2.98023-4.29038,7.92568-6.54535,13.01691-7.63594,6.68932-1.38034,13.74217-1.01681,20.57726-.79905l4.43615.29154c1.67368.14397,3.34556.43552,4.36416,1.74387,1.30835,1.81765,1.16258,5.09123,1.23636,7.41818l-.07379,4.21659c-.07199.87283-.28974,2.6185-.87283,2.76427-.79905.28974-1.96342-.87283-2.76247-1.52791-4.50814-3.85306-9.67135-7.63414-15.27008-9.30782-1.38214-.43552-2.83626-.58129-4.21839-.43552-1.89144.21776-4.14461,1.52611-3.126,3.70729.5075,1.01861,1.81765,2.03721,2.90824,2.69228,3.6353,2.1074,8.72473,3.70729,12.72536,5.7445,8.14344,3.78108,14.39724,8.94429,14.17949,17.30549-.43552,14.47103-16.2167,16.2167-28.215,16.07092Z"/>
        <path class="cls-1" d="M226.28064,97.23107c-5.59873.07199-12.07029,0-17.7428,0h-3.05402c-1.16438-.07199-2.25497-.14577-3.27177-.65507-1.67368-.94482-1.74567-3.19979-2.18298-4.87167-.43552-1.96342-.94482-3.70909-1.59809-5.7445-2.40074-7.34439-5.7463-16.14291-8.80032-23.4873-.72706-1.67368-2.83446-7.49017-3.99883-3.56332-.58129,1.96342-.79905,4.65391-.94482,6.90708-.14577,2.54651-.21776,5.16321-.07379,7.70972.29154,5.88847,1.59989,11.70676,4.50994,16.79618.94482,1.74567,2.39894,3.41755,3.6353,4.87347,1.01861,1.30835,1.09059,1.81765-.72706,1.96342-1.01861.07199-2.03721.07199-3.1278.07199-6.90708,0-15.99714.07199-22.76024-.07199-1.52611-.07379-1.74567-.29154-1.09059-1.38214,5.38097-8.07145,12.28985-26.90485,16.86997-41.08613.58309-1.88964,1.23636-4.14461,2.54651-5.30718,1.52611-1.31015,4.21659-1.31015,6.252-1.31015h13.45422c1.88964.07379,3.70729-.07199,5.52674.36353,1.74387.43732,2.39894,1.89144,2.69048,3.56332.94482,4.65391,2.6167,9.23583,4.21659,13.74397,2.03541,5.7445,4.29038,11.63477,6.61733,17.2335,1.52791,3.56332,2.98203,6.98086,4.79968,10.25444,1.74567,2.98023,1.59989,3.85306-1.74567,3.99883Z"/>
      </g>
      <g>
        <path class="cls-1" d="M51.60955,151.93096c.65507,0,1.96342.14577,1.59989,1.09059-.21776.43732-.58129.87283-1.01861,1.30835-3.126,2.83626-7.56215,4.87347-12.79735,6.18182-13.96173,3.27177-32.21383-.29154-37.30506-15.41585-1.67188-4.79968-1.96342-10.25264-.72706-15.19809,2.90824-11.34323,13.88974-17.2335,24.94322-18.68762,5.38097-.72886,10.68815-.65507,15.99714.07199,1.88964.29154,4.07262.58129,5.67251,1.01861.58129.21776,1.23636.36353,1.74387.65327,1.45592.80085,1.45592,2.1092,1.01861,3.56332-1.81765,5.45476-4.79968,13.5982-6.61733,18.90718-.21776.72706-.58129,1.52611-.79905,2.1092-.36353.65327-.72706,1.23456-1.38214.87103-.65507-.5075-1.01861-1.38034-1.67188-2.6167-2.03721-4.07262-4.14641-8.21723-6.39957-12.21606-1.67368-2.76427-3.70909-6.2538-5.59873-7.49017-.94662-.65507-2.03721-.58309-2.76427.28974-1.09059,1.38214-1.38214,3.34556-1.45412,5.30898,0,3.34556.79905,6.68932,1.74567,9.88911,3.48953,11.56279,10.90771,20.65285,21.66965,20.50707,1.52611-.07379,2.90824-.21776,4.14461-.14577Z"/>
        <path class="cls-1" d="M86.95838,155.92979c-.72706-2.47093-1.81765-4.65391-2.90824-7.05285-.80085-1.45412-2.18118-5.08943-3.41755-5.81829-1.16438-.28974-.72706,4.65391-.72706,5.52674.14397,2.91004.28974,5.60053.87103,8.363.94662,3.92685-.65327,3.92685-3.92505,3.92685h-16.36247c-1.67188-.07199-3.85306.21776-5.08943-.5093-1.09059-.72706-.58309-2.25317-.36353-3.41755.36353-1.81765.58129-3.85306.65327-5.7445.58309-10.03488.80085-24.36014-.5093-34.39502-.07199-1.45412-1.23456-3.92685.5093-4.72769.65507-.28974,1.45412-.28974,2.32695-.36353h18.32589c8.14344.21956,30.75791-1.09059,33.08667,8.29101.79905,2.90824-.14577,6.18002-1.89144,8.65274-.87283,1.16438-1.89144,2.18118-2.76247,3.19979-2.6185,2.98203-2.18298,5.7445-.5093,9.01627,2.83446,5.81829,5.7445,11.41701,9.45179,16.58023.80085,1.23636,2.91004,3.27177.14577,3.34556-1.88964.14397-4.79968.07199-7.05285.07199h-13.81596c-1.52791-.07199-4.00063.36353-4.94545-.94482-.58129-.87283-.72706-2.69048-1.09059-4.00063ZM84.05014,116.22759c-1.09059-.43732-3.05402-.94662-3.56332.5075-.58129,4.07262-.58129,9.23583-.72706,15.63541v1.23636c.07199.58129.14577.94482.28974,1.16258.5093.65507,1.52791-.28974,1.96342-.72706,1.81765-1.74567,3.27357-3.70909,4.14641-5.96226.72706-1.81765,1.09059-3.78108,1.01681-5.81829,0-2.47273-.72706-5.01744-3.126-6.03424Z"/>
        <path class="cls-1" d="M172.84514,137.96923c-.58309,13.96173-12.50761,22.61447-26.68709,23.4873-17.16151,1.52791-33.4502-5.81649-34.83233-22.68826-1.52791-18.54185,12.87114-28.2132,30.68593-28.06743,17.30729-.14577,31.8503,9.01627,30.8335,27.26838ZM145.50297,129.02494c-1.59989-4.43615-3.99883-10.68995-7.41638-13.16088-.94662-.65507-2.32875-.87283-3.1278.07199-2.90824,3.34556.07199,15.34386,1.45412,20.43329,1.96342,7.12664,6.2538,20.50707,11.34503,20.65105,6.32579-.5075-.72886-23.92282-2.25497-27.99544Z"/>
        <path class="cls-1" d="M211.75729,163.2022c2.69048.21776,5.96226.43552,9.09006.07199,1.74387-.21776,3.85306-.65327,5.38097-.43552,1.88964.14577,3.05402,1.45412,3.85306,3.126.87283,1.96342,1.52791,4.72769.94662,6.76311-.65507,2.40074-3.34556,2.90824-5.52674,3.27177-9.81712,1.59989-19.05295-1.67188-28.87007-1.45412-2.90824,0-4.94365-.43552-6.18002-3.19979-.87283-2.03541-1.74567-5.7445-.87283-7.92568.5093-1.30835,2.1092-1.81765,3.27177-2.18118.65507-.21776,1.16438-.43552,1.23636-.65507v-.07199c0-.5093-1.38214-1.09059-1.88964-1.38214-1.81945-.79905-4.29038-1.96342-6.10983-3.27177-3.99883-2.83626-6.98086-6.68932-8.58076-11.41701-3.19799-9.67135-.65327-21.23234,7.8537-27.41415,7.99947-5.96226,18.97917-7.05285,28.7243-5.7445,6.54355.94482,13.23467,3.56332,17.7428,8.50697,5.67251,6.10983,7.19862,15.19809,5.2352,23.12557-2.69048,9.81532-10.25264,15.63361-21.16035,17.81479-1.67188.36353-3.41755.58129-5.01744.72706-.87283.14577-3.70909.43732-3.70909.87283.29154.43732,3.78108.80085,4.58192.87283ZM201.94017,138.26077c1.67188,5.52674,4.65391,15.1243,9.01627,18.25211.87283.58129,1.89144.79905,2.76427.28974,3.70909-2.39894.21776-15.99714-1.01861-20.72483-1.96342-7.12484-6.2538-20.57906-11.34323-20.72303-5.67251.5093-.5093,19.05115.58129,22.90601Z"/>
        <path class="cls-1" d="M275.61266,111.86343c6.76311-.21776,14.54302-.21776,21.30612,0,3.70909.29154,1.96342,3.85486,1.81765,6.2538-.72706,5.59873-.72706,11.63477-.79905,17.30729.14577,8.72653-.29154,17.45126-8.65274,22.17895-8.14524,4.58012-18.25211,4.65391-27.34217,3.70729-9.81712-1.16258-18.76141-5.96226-19.92579-16.65221-.72706-7.56215-.14397-15.63361-.79905-23.19576-.14577-1.89144-.43552-4.00063-.72706-5.67251-.21776-1.59989-.5093-3.27177,1.38214-3.70909,1.30835-.36353,2.69048-.28974,4.07082-.28974,5.67251.07199,12.58139-.21776,18.18012.14577,1.89144.28974,2.32695,1.16258,2.1092,2.98023-.14577,1.31015-.43732,2.47273-.58309,4.00063-.65327,7.05285-.65327,14.54302-.72706,21.74164.07379,3.6353.07379,7.56215,1.01861,11.12547,1.96342,7.34439,6.90888,5.16321,7.92568-1.23636,1.09059-6.03424.58309-12.14408.65507-18.32409-.14577-5.45476-.14577-11.19926-1.09059-16.43445v-.07199c-.36353-2.03721-.29154-3.56332,2.18118-3.85486Z"/>
        <path class="cls-1" d="M302.31055,156.80262c1.45412-10.25264,1.16258-23.34153.72706-33.81373l-.29154-3.70729c-.07199-2.03721-1.23636-5.16321.14577-6.54535,1.89144-1.59989,7.8537-.87283,10.68995-1.01861h28.28698c2.6185.14577,6.32579-.36353,6.61733,2.91004.14577,1.96342-.21776,4.07082-.36353,6.03424-.36353,1.96342-.43732,6.98086-1.96342,7.8537-1.16438.29154-2.39894-1.38034-3.34556-2.32695-.94482-.94482-1.81765-1.96342-2.76247-2.83626-2.69048-2.6167-11.05348-9.67135-12.72536-3.34376-.58309,2.90824-.94662,7.05285.28974,9.74333,1.01861,2.1092,3.19979,1.96342,5.09123,1.16438,1.09059-.36353,2.1092-.94662,3.05402-.94662,1.09059-.07199,1.52611,1.09059,1.67188,2.03721.29154,2.25317.29154,4.94365-.07199,7.19862-.29154,2.03541-1.45412,2.32695-3.19979,1.52611-1.38214-.5075-3.1278-1.38034-4.65391-1.01681-3.70909,1.09059-2.69048,8.21723-2.47273,11.27124.65507,7.27061,6.98086,3.70729,10.90771,1.16258,1.59989-1.09059,3.19979-2.32695,4.58192-3.70729,1.52611-1.16438,5.38097-6.47336,6.18002-3.56332.58129,2.18118.36353,4.7259.36353,7.12484-.14577,2.47273.5093,6.32759-1.38214,7.92748-.65327.5093-1.67188.72706-3.05402.87283-6.61733.21776-13.16088,0-19.852.07199h-14.68879c-1.96342,0-3.41755.07199-4.94365-.14577-1.09059-.07199-2.32695-.5093-2.6185-1.23636-.43552-.65327-.36353-1.74387-.21776-2.69048Z"/>
        <path class="cls-1" d="M400.04804,111.64567c1.96342.07199,4.14461-.21776,5.59873,1.01861.87283,1.09059.72706,2.69048.80085,4.14461v5.81649c-.14577,1.31015.58129,7.78171-1.38214,6.10803-1.81765-1.74387-3.34556-4.36236-5.08943-6.32579-1.81765-2.03541-4.00063-4.50814-6.39957-5.08943-1.45412-.14577-1.81765,1.01681-2.03541,2.47093-.87283,11.05348-.94662,25.16098.28974,35.92292.14577,1.59989,1.38214,4.36416-.94482,4.87167-4.36236.5093-9.23583.07379-13.88974.21956-3.27177-.07379-5.59873.14397-8.43499-.14577-2.69048-.43732-1.23636-3.34556-1.09059-5.2352,1.16438-10.32642,1.01861-24.36194.36353-34.76035-.14577-1.74387-.65507-4.07082-2.83626-3.19979-3.27177,1.59989-6.03424,5.237-8.43499,8.363-.58129.72706-2.47273,3.85486-3.27177,3.05402-.80085-1.38034-.43732-4.43615-.5093-6.18002v-6.90888c-.07199-4.14461,2.25497-4.07262,5.45296-4.14461h41.8132Z"/>
        <path class="cls-1" d="M409.21909,156.80262c1.45412-10.25264,1.16258-23.34153.72706-33.81373l-.29154-3.70729c-.07199-2.03721-1.23456-5.16321.14577-6.54535,1.89144-1.59989,7.8537-.87283,10.68995-1.01861h28.28698c2.6185.14577,6.32579-.36353,6.61733,2.91004.14577,1.96342-.21776,4.07082-.36353,6.03424-.36353,1.96342-.43732,6.98086-1.96342,7.8537-1.16438.29154-2.39894-1.38034-3.34556-2.32695-.94482-.94482-1.81765-1.96342-2.76247-2.83626-2.69048-2.6167-11.05348-9.67135-12.72536-3.34376-.58309,2.90824-.94662,7.05285.28974,9.74333,1.01861,2.1092,3.19979,1.96342,5.09123,1.16438,1.09059-.36353,2.1092-.94662,3.05402-.94662,1.09059-.07199,1.52611,1.09059,1.67188,2.03721.29154,2.25317.29154,4.94365-.07199,7.19862-.29154,2.03541-1.45412,2.32695-3.19979,1.52611-1.38214-.5075-3.1278-1.38034-4.65391-1.01681-3.70909,1.09059-2.69048,8.21723-2.47273,11.27124.65507,7.27061,6.98086,3.70729,10.90771,1.16258,1.59989-1.09059,3.19979-2.32695,4.58192-3.70729,1.52611-1.16438,5.38097-6.47336,6.18002-3.56332.58129,2.18118.36353,4.7259.36353,7.12484-.14577,2.47273.5093,6.32759-1.38214,7.92748-.65327.5093-1.67188.72706-3.05402.87283-6.61733.21776-13.16088,0-19.8502.07199h-14.69059c-1.96342,0-3.41755.07199-4.94365-.14577-1.09059-.07199-2.32695-.5093-2.6185-1.23636-.43552-.65327-.36353-1.74387-.21776-2.69048Z"/>
      </g>
      <g>
        <path class="cls-1" d="M276.77123,75.64455c1.93674,3.28237,1.66076,7.51305.19769,11.03226-2.5709,6.09011-9.09552,9.64846-15.581,9.76785-4.42837.11842-9.01527.03915-13.52291.03915-.47464,0-1.14697-.07927-1.26539-.59306-.07927-.39537.07829-1.02856.15756-1.5032.7516-4.50764.59306-9.29223.59306-14.82842-.11842-3.12383-.11842-5.61546-.75062-8.50149-.04012-.39537-.07927-.79074.27598-1.02856.51477-.3161,1.26539-.23683,1.89857-.23683,4.23068,0,8.46234-.04012,12.69302,0,5.45692.19769,12.21936.82989,15.30404,5.85229ZM261.42804,93.55766c2.4515-3.08469,3.55835-9.96456,3.12383-14.67086-.15854-2.4515-1.0677-5.57534-2.61005-6.4845-.47464-.35623-1.30453-.59404-1.58149.15756-.11842.23781-.15854.47464-.19769.7516-.4355,5.1007-.39537,14.74915.03915,19.73241.04012.39537.11842,1.0677.51477,1.02758.23683,0,.55293-.3161.71147-.51379Z"/>
        <path class="cls-1" d="M313.3148,84.02762c-.31708,7.59233-6.80158,12.29765-14.51232,12.77229-9.33236.83087-18.19007-3.16298-18.94167-12.33777-.83087-10.08298,6.99927-15.34221,16.68687-15.26294,9.41163-.07927,17.32005,4.90301,16.76712,14.82842ZM298.44625,79.16376c-.87002-2.41236-2.17455-5.81315-4.03397-7.15683-.51379-.35623-1.26441-.47464-1.69991.03915-1.58149,1.8193.03915,8.34392.79074,11.11153,1.0677,3.87543,3.40079,11.15166,6.16938,11.22995,3.43994-.27598-.39635-13.00912-1.22624-15.2238Z"/>
      </g>
      <g>
        <path class="cls-1" d="M248.70343,167.32673v1.8125h-2.39941v7.30273h-2.07031v-7.30273h-2.39941v-1.8125h6.86914Z"/>
        <path class="cls-1" d="M259.86066,176.44196l-2.08301-3.20117h-.42188v3.20117h-2.06934v-9.11523h3.71777c2.10938,0,3.05859,1.50879,3.05859,3.0166,0,1.2832-.94922,2.51367-2.12305,2.77832l2.33398,3.32031h-2.41309ZM257.35577,169.13923v2.46094h1.31836c.91016,0,1.30566-.5957,1.30566-1.2041s-.40918-1.25684-1.25293-1.25684h-1.37109Z"/>
        <path class="cls-1" d="M274.64484,176.44196l-.68555-2.11621h-3.19043l-.67285,2.11621h-2.21484l3.3623-9.11523h2.25391l3.34863,9.11523h-2.20117ZM271.33527,172.52595h2.04395l-1.02832-3.21484-1.01562,3.21484Z"/>
        <path class="cls-1" d="M286.63312,167.32673c2.62305,0,4.13965,1.98438,4.13965,4.57715,0,2.58008-1.5166,4.53809-4.13965,4.53809h-3.58594v-9.11523h3.58594ZM286.63312,174.62946c1.35742,0,2.05664-1.30957,2.05664-2.72559,0-1.42871-.69922-2.76465-2.05664-2.76465h-1.5166v5.49023h1.5166Z"/>
        <path class="cls-1" d="M297.64581,176.44196v-9.11523h2.07031v9.11523h-2.07031Z"/>
        <path class="cls-1" d="M313.39093,173.45173l1.6084,1.125c-.75195,1.09766-1.96484,1.86523-3.3623,1.99707l.35645.66211c.13184.25098.14453.48926.14453.66113,0,.79395-.63281,1.3623-1.35742,1.3623-.76465,0-1.49023-.47559-1.49023-1.57422h.96289c0,.38379.0918.6748.4873.6748.2373,0,.44824-.18457.44824-.48926,0-.0791-.0127-.18555-.05273-.29102l-.4873-1.00586c-2.30762-.27734-4.08691-2.30176-4.08691-4.70898,0-2.56641,2.05664-4.69629,4.61426-4.69629,1.59473,0,2.99219.80664,3.82324,2.02344l-1.6084,1.125c-.47461-.74121-1.17383-1.19043-2.12305-1.19043-1.5293,0-2.62305,1.22949-2.62305,2.73828,0,1.50781,1.05469,2.77832,2.61035,2.77832.96191,0,1.66113-.4502,2.13574-1.19141Z"/>
        <path class="cls-1" d="M327.23859,176.44196l-.68555-2.11621h-3.19043l-.67285,2.11621h-2.21484l3.3623-9.11523h2.25391l3.34863,9.11523h-2.20117ZM324.03449,166.00446h-.96191c.06543-1.27051.75098-1.69336,1.30469-1.69336s.84375.54199,1.14746.54199c.10547,0,.34277-.11914.35547-.54199h.96289c-.06641,1.2832-.79102,1.66602-1.31836,1.66602-.51465,0-.84375-.54199-1.14746-.54199-.0918,0-.3291.14551-.34277.56934ZM323.92902,172.52595h2.04395l-1.02832-3.21484-1.01562,3.21484Z"/>
        <path class="cls-1" d="M334.94269,171.87751c0-2.5791,2.04297-4.70898,4.64062-4.70898,2.55762,0,4.62695,2.12988,4.62695,4.70898,0,2.58008-2.06934,4.72363-4.62695,4.72363-2.59766,0-4.64062-2.14355-4.64062-4.72363ZM342.12726,171.87751c0-1.52148-1.04102-2.75098-2.55762-2.75098-1.5293,0-2.54395,1.22949-2.54395,2.75098s1.01465,2.76562,2.54395,2.76562c1.5166,0,2.55762-1.24414,2.55762-2.76562Z"/>
        <path class="cls-1" d="M365.14093,169.13923h-3.67773v1.91797h2.91309v1.7998h-2.91309v3.58496h-2.07031v-9.11523h5.74805v1.8125Z"/>
        <path class="cls-1" d="M376.87824,176.44196l-.68555-2.11621h-3.19043l-.67188,2.11621h-2.21484l3.36133-9.11523h2.25488l3.34863,9.11523h-2.20215ZM373.56964,172.52595h2.04297l-1.02832-3.21484-1.01465,3.21484Z"/>
        <path class="cls-1" d="M389.11749,167.32673h2.17578l-2.76855,9.11523h-1.83301l-2.76855-9.11523h2.14941l1.5293,5.76855,1.51562-5.76855Z"/>
        <path class="cls-1" d="M397.0589,171.87751c0-2.5791,2.04297-4.70898,4.64062-4.70898,2.55762,0,4.62695,2.12988,4.62695,4.70898,0,2.58008-2.06934,4.72363-4.62695,4.72363-2.59766,0-4.64062-2.14355-4.64062-4.72363ZM404.24347,171.87751c0-1.52148-1.04102-2.75098-2.55762-2.75098-1.5293,0-2.54395,1.22949-2.54395,2.75098s1.01465,2.76562,2.54395,2.76562c1.5166,0,2.55762-1.24414,2.55762-2.76562Z"/>
        <path class="cls-1" d="M417.73566,176.44196l-2.08301-3.20117h-.42188v3.20117h-2.06934v-9.11523h3.71777c2.10938,0,3.05859,1.50879,3.05859,3.0166,0,1.2832-.94922,2.51367-2.12305,2.77832l2.33398,3.32031h-2.41309ZM415.23077,169.13923v2.46094h1.31836c.91016,0,1.30566-.5957,1.30566-1.2041s-.40918-1.25684-1.25293-1.25684h-1.37109Z"/>
        <path class="cls-1" d="M426.90363,176.44196v-9.11523h2.06934v9.11523h-2.06934Z"/>
        <path class="cls-1" d="M442.43683,167.32673v1.8125h-2.39941v7.30273h-2.07031v-7.30273h-2.39941v-1.8125h6.86914Z"/>
        <path class="cls-1" d="M453.89777,176.44196l-.68555-2.11621h-3.19043l-.67285,2.11621h-2.21484l3.3623-9.11523h2.25391l3.34863,9.11523h-2.20117ZM450.5882,172.52595h2.04395l-1.02832-3.21484-1.01562,3.21484Z"/>
      </g>
    </g>
  </g>
</svg>